<svg xmlns="http://www.w3.org/2000/svg" viewBox="0 0 800 300" width="800" height="300" role="img" aria-label="ปูซาน">
  <defs>
    <linearGradient id="b-sky" x1="0" y1="0" x2="0" y2="1"><stop offset="0" stop-color="#fdf6ec"/><stop offset="0.55" stop-color="#fadfc9"/><stop offset="1" stop-color="#e9b98a"/></linearGradient>
    <linearGradient id="b-sea" x1="0" y1="0" x2="0" y2="1"><stop offset="0" stop-color="#6f93a3"/><stop offset="1" stop-color="#4a6f80"/></linearGradient>
  </defs>
  <rect width="800" height="300" fill="url(#b-sky)"/>
  <circle cx="690" cy="66" r="34" fill="#d9683a" opacity="0.82"/>
  <path d="M0 150 L86 96 L164 140 L252 84 L336 146 L410 112 L470 148 L800 148 L800 244 L0 244 Z" fill="#b8502a" opacity="0.26"/>
  <!-- บ้านลดหลั่นไต่เนิน (คัมชอน) — ยืนบนฝั่ง ไม่ใช่บนน้ำ -->
  <g fill="#2b241f" opacity="0.9">
    <rect x="28" y="206" width="48" height="38"/><rect x="84" y="188" width="42" height="56"/>
    <rect x="134" y="212" width="46" height="32"/><rect x="188" y="176" width="40" height="68"/>
    <rect x="236" y="200" width="48" height="44"/><rect x="292" y="166" width="42" height="78"/>
    <rect x="342" y="204" width="46" height="40"/><rect x="396" y="184" width="40" height="60"/>
  </g>
  <g fill="#fdf6ec" opacity="0.42">
    <rect x="44" y="216" width="9" height="11"/><rect x="98" y="200" width="9" height="11"/>
    <rect x="200" y="188" width="9" height="11"/><rect x="304" y="178" width="9" height="11"/>
    <rect x="408" y="196" width="9" height="11"/>
  </g>
  <!-- สะพานข้ามอ่าว — ตอม่อลงถึงผิวน้ำ -->
  <g stroke="#2b241f" fill="none" stroke-width="7" opacity="0.88" stroke-linecap="round">
    <path d="M458 244 C542 172 626 172 710 244"/>
  </g>
  <g stroke="#2b241f" stroke-width="3" opacity="0.55">
    <path d="M498 208 V244"/><path d="M546 190 V244"/><path d="M594 186 V244"/><path d="M642 196 V244"/><path d="M686 222 V244"/>
  </g>
  <!-- แนวฝั่ง -->
  <path d="M0 240 L800 240 L800 252 L0 252 Z" fill="#2b241f" opacity="0.9"/>
  <rect y="252" width="800" height="48" fill="url(#b-sea)"/>
  <g stroke="#fdf6ec" stroke-width="3" opacity="0.3" stroke-linecap="round">
    <path d="M48 268 H178"/><path d="M232 288 H388"/><path d="M470 266 H580"/><path d="M616 290 H750"/>
  </g>
</svg>
